<svg width="120" height="120" viewBox="0 0 120 120" fill="none" xmlns="http://www.w3.org/2000/svg">
  <ellipse cx="60" cy="104" rx="34" ry="6" fill="#FF9500" fill-opacity="0.08" />
  <path d="M26 46C26 39.9249 30.9249 35 37 35H78C86.8366 35 94 42.1634 94 51V79C94 87.8366 86.8366 95 78 95H37C30.9249 95 26 90.0751 26 84V46Z" fill="#FFD08A" />
  <path d="M26 55C26 49.4772 30.4772 45 36 45H88C91.3137 45 94 47.6863 94 51V80C94 87.732 87.732 94 80 94H36C30.4772 94 26 89.5228 26 84V55Z" fill="#FF9500" />
  <circle cx="76" cy="69" r="11" fill="#FFC55C" />
  <circle cx="76" cy="69" r="6" fill="#FF9500" />
  <rect x="26" y="45" width="22" height="10" rx="5" fill="#FFC55C" />
  <path d="M60 24L64.5 32.5L74 34L67 40.7L68.7 50L60 45.4L51.3 50L53 40.7L46 34L55.5 32.5L60 24Z" fill="#00C896" />
</svg>
